<svg width="35" height="22" viewBox="0 0 35 22" fill="none" xmlns="http://www.w3.org/2000/svg">
<path d="M13.5 6C14.163 6 14.7989 5.73661 15.2678 5.26777C15.7366 4.79893 16 4.16304 16 3.5C16 2.83696 15.7366 2.20107 15.2678 1.73223C14.7989 1.26339 14.163 1 13.5 1C12.837 1 12.2011 1.26339 11.7322 1.73223C11.2634 2.20107 11 2.83696 11 3.5C11 4.16304 11.2634 4.79893 11.7322 5.26777C12.2011 5.73661 12.837 6 13.5 6Z" fill="black" stroke="#A20751" stroke-width="2" stroke-miterlimit="2"/>
<path d="M11.19 8.45502L9 12.5M9 12.5L12.655 15.51C12.81 15.63 12.92 15.795 12.985 15.98L14.5 21M9 12.5L6.255 16.32C5.985 16.715 5.475 16.865 5.035 16.68L1 15" stroke="#A20751" stroke-width="2" stroke-miterlimit="2" stroke-linecap="round" stroke-linejoin="round"/>
<path d="M20 11H16.5C16.32 11 16.14 10.955 15.98 10.865L14.375 9.96C12.37 8.785 10.175 7.98 7.89 7.57L6.28 7.285C6.055 7.245 5.82 7.285 5.62 7.395L2.5 9" stroke="#A20751" stroke-width="2" stroke-miterlimit="2" stroke-linecap="round" stroke-linejoin="round"/>
<path d="M34.9834 13.498C34.9887 13.3198 35.0357 10.772 33.5279 9.1135C33.4609 8.96525 33.1432 8.36775 32.1177 7.6375C31.663 7.28489 31.1802 6.97025 30.6739 6.69675L30.6719 6.69575C30.6079 6.6615 29.3574 6 27.8397 6C27.7244 6 27.6104 6.00675 27.4977 6.0145V6.0125C26.3404 5.98725 25.1909 6.285 24.4982 6.59775C23.8837 6.87525 23.2014 7.3405 23.1522 7.3765C22.3012 7.8525 20.6874 9.76275 20.5597 10.775C20.0439 11.4343 19.6129 14.3955 20.5607 16.1993C21.2252 18.706 23.7267 19.9605 23.9257 20.0568C24.0467 20.134 25.4099 20.9768 27.0847 20.9768C27.1549 20.9768 27.5797 21.0002 27.7312 21.0002C29.5414 21.0002 32.2239 19.7242 32.7854 18.7247C34.3282 17.5962 35.1279 14.688 34.9834 13.498ZM23.9394 17.2638C23.2222 16.1035 22.8134 14.5875 22.7259 14.2393C22.9529 13.899 24.0727 12.248 24.7107 11.7512C25.0719 11.8177 26.5804 12.0948 28.0032 12.3523C28.1819 12.8155 28.9662 14.8595 29.1907 15.6485C28.9432 15.942 27.9709 17.074 27.0137 17.9605C25.9974 17.9652 24.2689 17.379 23.9394 17.2638ZM32.9559 9.145C32.9529 9.2575 32.9262 9.6575 32.7347 10.1167C32.3544 9.9225 31.3987 9.5065 30.0887 9.43625C29.8904 9.1435 29.1444 8.12275 27.9662 7.41475C28.1274 7.09925 28.3519 6.7145 28.4832 6.59725C28.5257 6.58525 28.5917 6.57425 28.6922 6.57425C29.3239 6.57425 30.4154 6.988 30.5104 7.02475C30.6112 7.078 32.5732 8.1345 32.9559 9.145ZM22.4432 14.003C21.5874 13.857 21.0787 13.591 20.9267 13.501C20.6084 12.3468 20.8647 11.0992 20.9042 10.9205C21.2182 10.359 22.1122 8.92775 22.7019 8.656C23.3132 8.53125 24.0754 8.68625 24.3859 8.762C24.3567 9.16575 24.3004 10.2937 24.4674 11.4775C23.7909 12.022 22.7202 13.5893 22.4432 14.003ZM27.4212 6.3825C27.6132 6.39675 27.8949 6.43875 28.0879 6.496C27.8954 6.752 27.6982 7.1315 27.6049 7.319C27.2124 7.38325 25.7217 7.66825 24.5522 8.4265C24.3164 8.364 23.6044 8.19725 22.9302 8.25475C23.0972 7.9315 23.3467 7.6925 23.3734 7.668C23.4662 7.6015 25.2517 6.35225 27.4212 6.37925V6.3825ZM32.1952 15.9058C31.9027 15.8938 30.7757 15.8295 29.5399 15.5393C29.3032 14.7138 28.5214 12.6783 28.3427 12.2153C28.9114 11.4046 29.4888 10.6001 30.0747 9.80175C31.4967 9.87975 32.4952 10.3985 32.6884 10.5068C33.5122 11.8315 33.6929 13.1845 33.7177 13.4105C33.2802 14.772 32.4149 15.6888 32.1952 15.9058ZM20.4137 12.6297C20.4347 12.9462 20.4854 13.2795 20.5772 13.609C20.4946 13.8225 20.4374 14.0449 20.4067 14.2718C20.3544 13.7255 20.3568 13.1755 20.4137 12.6297ZM22.8247 18.4695C23.2017 18.1062 23.6664 17.7528 23.8467 17.6193C24.2542 17.7628 25.9277 18.3285 26.9944 18.3285C27.1762 18.5722 27.7704 19.3355 28.4989 19.919C28.0454 20.3627 27.3904 20.5723 27.2747 20.607C25.2429 20.6615 23.2642 19.5195 22.8247 18.4695ZM28.1904 20.604C28.4209 20.4698 28.6612 20.293 28.8599 20.0693C29.1842 20.0245 30.5757 19.785 31.8332 18.8612C31.9162 18.8702 32.0529 18.8812 32.2057 18.877C31.4512 19.6162 29.6102 20.442 28.1904 20.604ZM32.0464 18.51C32.4982 17.333 32.4789 16.4455 32.4567 16.162C32.7047 15.919 33.5557 15.0122 34.0279 13.6337C34.2824 13.6762 34.4479 13.741 34.5264 13.7773C34.5537 13.8773 34.5992 14.1082 34.5734 14.4585C34.3809 15.7192 33.7164 17.6085 32.5524 18.4438C32.4354 18.5035 32.2294 18.5165 32.0464 18.51Z" fill="#BE0A55"/>
</svg>
